<?xml version="1.0" encoding="utf-8"?>
<!-- Generator: Adobe Illustrator 23.0.3, SVG Export Plug-In . SVG Version: 6.00 Build 0)  -->
<svg version="1.1" id="Layer_1" xmlns="http://www.w3.org/2000/svg" xmlns:xlink="http://www.w3.org/1999/xlink" x="0px" y="0px"
	 viewBox="0 0 4675.7 341.7" style="enable-background:new 0 0 4675.7 341.7;" xml:space="preserve">
<style type="text/css">
	.st0{fill:#27B45A;}
	.st1{fill:none;}
	.st2{fill:#656A76;}
	.st3{font-family:'OpenSans-Semibold';}
	.st4{font-size:300px;}
</style>
<g>
	<g id="g4167">
		<path id="path4173" class="st0" d="M145.8,47.5H14.1C6.5,47.5,0,54,0,62.2c0,7.6,6.5,14.6,14.1,14.6h51v162.6
			c0,8.1,6.5,15.2,14.6,15.2s14.6-7,14.6-15.2V76.8h51c7.6,0,14.1-6.5,14.1-14.6C159.9,54,153.4,47.5,145.8,47.5"/>
	</g>
	<path id="path4175" class="st0" d="M397.4,224.2H284.1v-60.2h100.3c7.6,0,14.1-6.5,14.1-14.6c0-7.6-6.5-14.6-14.1-14.6H284.1V76.3
		h112.2c7.6,0,14.1-6.5,14.1-14.6c0-7.6-6.5-14.6-14.1-14.6H269.4c-8.1,0-14.6,7-14.6,15.2v175.6c0,8.1,6.5,15.2,14.6,15.2h127.9
		c7.6,0,14.1-6.5,14.1-14.6S405,224.2,397.4,224.2"/>
	<path id="path4177" class="st0" d="M548.1,145.6V76.3H611c28.7,0,45,12.5,45,34.2s-17.9,35.2-46.1,35.2H548.1z M637,169.5
		c30.4-8.7,48.2-30.4,48.2-60.2c0-15.2-6-30.4-16.3-40.7c-13-13.6-33.6-21.1-57.5-21.1h-78.1c-8.1,0-14.6,7-14.6,15.2v176.2
		c0,8.1,6.5,15.2,14.6,15.2s14.6-7,14.6-15.2v-64.5h56.4l54.2,72.6c4.3,6,9.2,7,12.5,7c8.1,0,15.2-7,15.2-15.2
		c0-3.3-1.1-6.5-3.8-9.8L637,169.5"/>
	<path id="path4179" class="st0" d="M812.1,46.4c-8.1,0-14.6,7-14.6,15.2v177.3c0,8.1,6.5,15.2,14.6,15.2s14.6-7,14.6-15.2V61.1
		C826.7,53.5,819.7,46.4,812.1,46.4"/>
	<path id="path4181" class="st0" d="M1019.2,224.2h-47.7v-148h47.7c43.9,0,75.9,31.4,75.9,74.3
		C1095.1,193.9,1063.6,224.2,1019.2,224.2z M1019.2,47.5h-62.3c-8.1,0-14.6,7-14.6,15.2v175.1c0,8.1,6.5,15.2,14.6,15.2h62.3
		c61.3,0,105.7-43.4,105.7-103S1080.4,47.5,1019.2,47.5"/>
	<path id="path4183" class="st0" d="M1232.8,46.4c-8.1,0-14.6,7-14.6,15.2v177.3c0,8.1,6.5,15.2,14.6,15.2s14.6-7,14.6-15.2V61.1
		C1247.4,53.5,1240.4,46.4,1232.8,46.4"/>
	<path id="path4197" class="st0" d="M1464.2,9.6L1464.2,9.6C1464.2,9.6,1463.7,9.6,1464.2,9.6c-30.4,11.4-58,28.2-82.4,48.8
		l25.5,15.7c6.5-5.4,13.6-9.8,21.1-13c6-2.7,12.5,1.1,13.6,7c4.9,25.5,13.6,87.3,14.6,93.2h14.1c1.1-6,9.8-67.8,14.6-93.2
		c1.1-6,7.6-9.8,13.6-7c7.6,3.3,14.6,7.6,21.1,13l25.5-15.7C1521.7,37.8,1494.1,21.5,1464.2,9.6"/>
	<g id="g4187">
		<path id="path4193" class="st0" d="M1823.7,46.4c-8.1,0-14.6,6.5-14.6,14.6v136.6L1699,54c-4.3-6-9.8-7-13-7h-2.2
			c-8.1,0-14.6,7-14.6,15.2v177.3c0,8.1,6.5,14.6,14.6,14.6c8.1,0,14.6-6.5,14.6-14.6V99l112.8,146.9c1.6,1.6,6,7.6,13,7.6h1.1
			c7.6,0,13.6-6,13.6-14.1V60.5C1838.3,52.9,1832.3,46.4,1823.7,46.4"/>
		<path id="path4195" class="st0" d="M1539.6,105.5c8.1,13.6,13,29.3,13,46.1c0,48.8-39.6,88.4-88.4,88.4
			c-48.8,0-88.4-39.6-88.4-88.4c0-16.8,4.9-32.5,13-46.1l-26-16.3c-10.8,17.9-16.8,39-16.8,61.3c-0.5,65.1,52.6,118.2,118.2,118.2
			c65.6,0,118.2-53.1,118.2-118.2c0-22.2-6-43.4-16.8-61.3L1539.6,105.5"/>
	</g>
</g>
<rect x="2115.3" y="29.1" class="st1" width="2560.3" height="240.5"/>
<text transform="matrix(1 0 0 1 2115.3298 257.0801)" class="st2 st3 st4">PARTNER PORTAL</text>
</svg>
