<?xml version="1.0" encoding="utf-8"?>
<!-- Generator: Adobe Illustrator 23.0.4, SVG Export Plug-In . SVG Version: 6.00 Build 0)  -->
<svg version="1.1" id="Layer_1" xmlns="http://www.w3.org/2000/svg" xmlns:xlink="http://www.w3.org/1999/xlink" x="0px" y="0px"
	 viewBox="0 0 4675.7 341.7" style="enable-background:new 0 0 4675.7 341.7;" xml:space="preserve">
<style type="text/css">
	.st0{fill:#27B45A;}
	.st1{fill:none;}
	.st2{enable-background:new    ;}
	.st3{fill:#656A76;}
</style>
<g>
	<g id="g4167">
		<path id="path4173" class="st0" d="M145.8,47.5H14.1C6.5,47.5,0,54,0,62.2c0,7.6,6.5,14.6,14.1,14.6h51v162.6
			c0,8.1,6.5,15.2,14.6,15.2s14.6-7,14.6-15.2V76.8h51c7.6,0,14.1-6.5,14.1-14.6C159.9,54,153.4,47.5,145.8,47.5"/>
	</g>
	<path id="path4175" class="st0" d="M397.4,224.2H284.1V164h100.3c7.6,0,14.1-6.5,14.1-14.6c0-7.6-6.5-14.6-14.1-14.6H284.1V76.3
		h112.2c7.6,0,14.1-6.5,14.1-14.6c0-7.6-6.5-14.6-14.1-14.6H269.4c-8.1,0-14.6,7-14.6,15.2v175.6c0,8.1,6.5,15.2,14.6,15.2h127.9
		c7.6,0,14.1-6.5,14.1-14.6S405,224.2,397.4,224.2"/>
	<path id="path4177" class="st0" d="M548.1,145.6V76.3H611c28.7,0,45,12.5,45,34.2s-17.9,35.2-46.1,35.2L548.1,145.6L548.1,145.6z
		 M637,169.5c30.4-8.7,48.2-30.4,48.2-60.2c0-15.2-6-30.4-16.3-40.7c-13-13.6-33.6-21.1-57.5-21.1h-78.1c-8.1,0-14.6,7-14.6,15.2
		v176.2c0,8.1,6.5,15.2,14.6,15.2s14.6-7,14.6-15.2v-64.5h56.4l54.2,72.6c4.3,6,9.2,7,12.5,7c8.1,0,15.2-7,15.2-15.2
		c0-3.3-1.1-6.5-3.8-9.8L637,169.5"/>
	<path id="path4179" class="st0" d="M812.1,46.4c-8.1,0-14.6,7-14.6,15.2v177.3c0,8.1,6.5,15.2,14.6,15.2s14.6-7,14.6-15.2V61.1
		C826.7,53.5,819.7,46.4,812.1,46.4"/>
	<path id="path4181" class="st0" d="M1019.2,224.2h-47.7v-148h47.7c43.9,0,75.9,31.4,75.9,74.3
		C1095.1,193.9,1063.6,224.2,1019.2,224.2z M1019.2,47.5h-62.3c-8.1,0-14.6,7-14.6,15.2v175.1c0,8.1,6.5,15.2,14.6,15.2h62.3
		c61.3,0,105.7-43.4,105.7-103S1080.4,47.5,1019.2,47.5"/>
	<path id="path4183" class="st0" d="M1232.8,46.4c-8.1,0-14.6,7-14.6,15.2v177.3c0,8.1,6.5,15.2,14.6,15.2s14.6-7,14.6-15.2V61.1
		C1247.4,53.5,1240.4,46.4,1232.8,46.4"/>
	<path id="path4197" class="st0" d="M1464.2,9.6L1464.2,9.6C1464.2,9.6,1463.7,9.6,1464.2,9.6c-30.4,11.4-58,28.2-82.4,48.8
		l25.5,15.7c6.5-5.4,13.6-9.8,21.1-13c6-2.7,12.5,1.1,13.6,7c4.9,25.5,13.6,87.3,14.6,93.2h14.1c1.1-6,9.8-67.8,14.6-93.2
		c1.1-6,7.6-9.8,13.6-7c7.6,3.3,14.6,7.6,21.1,13l25.5-15.7C1521.7,37.8,1494.1,21.5,1464.2,9.6"/>
	<g id="g4187">
		<path id="path4193" class="st0" d="M1823.7,46.4c-8.1,0-14.6,6.5-14.6,14.6v136.6L1699,54c-4.3-6-9.8-7-13-7h-2.2
			c-8.1,0-14.6,7-14.6,15.2v177.3c0,8.1,6.5,14.6,14.6,14.6s14.6-6.5,14.6-14.6V99l112.8,146.9c1.6,1.6,6,7.6,13,7.6h1.1
			c7.6,0,13.6-6,13.6-14.1V60.5C1838.3,52.9,1832.3,46.4,1823.7,46.4"/>
		<path id="path4195" class="st0" d="M1539.6,105.5c8.1,13.6,13,29.3,13,46.1c0,48.8-39.6,88.4-88.4,88.4s-88.4-39.6-88.4-88.4
			c0-16.8,4.9-32.5,13-46.1l-26-16.3c-10.8,17.9-16.8,39-16.8,61.3c-0.5,65.1,52.6,118.2,118.2,118.2s118.2-53.1,118.2-118.2
			c0-22.2-6-43.4-16.8-61.3L1539.6,105.5"/>
	</g>
</g>
<rect x="2115.3" y="29.1" class="st1" width="2560.3" height="240.5"/>
<g class="st2">
	<path class="st3" d="M2285.4,107.7c0,22.4-7.3,39.5-22,51.4c-14.6,11.9-35.5,17.9-62.5,17.9h-22.3v80.1h-35V42.9h61.7
		c26.8,0,46.8,5.5,60.1,16.4C2278.7,70.3,2285.4,86.4,2285.4,107.7z M2178.6,147.5h18.6c18,0,31.2-3.1,39.6-9.4
		c8.4-6.2,12.6-16,12.6-29.3c0-12.3-3.8-21.5-11.3-27.5c-7.5-6.1-19.2-9.1-35.2-9.1h-24.3V147.5z"/>
	<path class="st3" d="M2461,257.1l-21.4-59.5h-81.9l-20.9,59.5h-36.9L2380,42h38.1l80.1,215H2461z M2430.4,167.4l-20.1-58.3
		c-1.5-3.9-3.5-10.1-6.1-18.5c-2.6-8.4-4.4-14.5-5.3-18.5c-2.6,12-6.5,25.1-11.6,39.4l-19.3,55.8H2430.4z"/>
	<path class="st3" d="M2561.5,171.5v85.5h-35V42.9h60.5c27.6,0,48.1,5.2,61.4,15.5c13.3,10.4,19.9,26,19.9,46.9
		c0,26.7-13.9,45.7-41.6,57l60.5,94.8h-39.8l-51.3-85.5H2561.5z M2561.5,142.5h24.3c16.3,0,28.1-3,35.4-9.1c7.3-6.1,11-15,11-27
		c0-12.1-4-20.8-11.9-26.1s-19.8-7.9-35.7-7.9h-23.1V142.5z"/>
	<path class="st3" d="M2792.2,257.1h-35V72.9h-63v-30h161v30h-63V257.1z"/>
	<path class="st3" d="M3066.5,257.1h-42.9L2918.2,86.4h-1.2l0.7,9.5c1.4,18.2,2.1,34.8,2.1,49.8v111.3H2888V42.9h42.5l105,169.8h0.9
		c-0.2-2.2-0.6-10.4-1.2-24.5c-0.6-14.1-0.9-25.1-0.9-33V42.9h32.1V257.1z"/>
	<path class="st3" d="M3244.1,257.1H3123V42.9h121.1v29.6H3158v58.3h80.7v29.3H3158v67.2h86.1V257.1z"/>
	<path class="st3" d="M3325.4,171.5v85.5h-35V42.9h60.5c27.6,0,48.1,5.2,61.4,15.5c13.3,10.4,19.9,26,19.9,46.9
		c0,26.7-13.9,45.7-41.6,57l60.5,94.8h-39.8l-51.3-85.5H3325.4z M3325.4,142.5h24.3c16.3,0,28.1-3,35.4-9.1c7.3-6.1,11-15,11-27
		c0-12.1-4-20.8-11.9-26.1s-19.8-7.9-35.7-7.9h-23.1V142.5z"/>
	<path class="st3" d="M3701.9,107.7c0,22.4-7.3,39.5-22,51.4c-14.6,11.9-35.5,17.9-62.5,17.9h-22.3v80.1h-35V42.9h61.7
		c26.8,0,46.8,5.5,60.1,16.4C3695.2,70.3,3701.9,86.4,3701.9,107.7z M3595.1,147.5h18.6c18,0,31.2-3.1,39.6-9.4
		c8.4-6.2,12.6-16,12.6-29.3c0-12.3-3.8-21.5-11.3-27.5c-7.5-6.1-19.2-9.1-35.2-9.1h-24.3V147.5z"/>
	<path class="st3" d="M3934.8,149.7c0,34.9-8.7,62-26.1,81.3s-42.1,29-74,29c-32.3,0-57.2-9.6-74.5-28.8c-17.3-19.2-26-46.5-26-81.8
		c0-35.4,8.7-62.5,26.1-81.4c17.4-18.9,42.3-28.4,74.6-28.4c31.8,0,56.4,9.6,73.8,28.9C3926.1,87.6,3934.8,114.7,3934.8,149.7z
		 M3771.3,149.7c0,26.4,5.3,46.4,16,60c10.6,13.6,26.4,20.4,47.3,20.4c20.8,0,36.5-6.7,47.1-20.2c10.6-13.5,15.9-33.5,15.9-60.2
		c0-26.3-5.3-46.2-15.7-59.8c-10.5-13.6-26.1-20.4-46.9-20.4c-21,0-36.8,6.8-47.5,20.4C3776.7,103.5,3771.3,123.4,3771.3,149.7z"/>
	<path class="st3" d="M4015.8,171.5v85.5h-35V42.9h60.5c27.6,0,48.1,5.2,61.4,15.5c13.3,10.4,19.9,26,19.9,46.9
		c0,26.7-13.9,45.7-41.6,57l60.5,94.8h-39.8l-51.3-85.5H4015.8z M4015.8,142.5h24.3c16.3,0,28.1-3,35.4-9.1c7.3-6.1,11-15,11-27
		c0-12.1-4-20.8-11.9-26.1s-19.8-7.9-35.7-7.9h-23.1V142.5z"/>
	<path class="st3" d="M4246.5,257.1h-35V72.9h-63v-30h161v30h-63V257.1z"/>
	<path class="st3" d="M4475.2,257.1l-21.4-59.5h-81.9l-20.9,59.5h-36.9l80.1-215h38.1l80.1,215H4475.2z M4444.6,167.4l-20.1-58.3
		c-1.5-3.9-3.5-10.1-6.1-18.5c-2.6-8.4-4.4-14.5-5.3-18.5c-2.6,12-6.5,25.1-11.6,39.4l-19.3,55.8H4444.6z"/>
	<path class="st3" d="M4540.7,257.1V42.9h35v184.1h90.7v30H4540.7z"/>
</g>
<rect x="1890.1" y="-265.1" class="st1" width="10.8" height="5.4"/>
</svg>
